<?xml version="1.0" encoding="utf-8"?>
<!-- Generator: Adobe Illustrator 24.1.2, SVG Export Plug-In . SVG Version: 6.00 Build 0)  -->
<svg version="1.1" id="Layer_1" xmlns="http://www.w3.org/2000/svg" xmlns:xlink="http://www.w3.org/1999/xlink" x="0px" y="0px"
	 width="120px" height="68px" viewBox="0 0 120 68" style="enable-background:new 0 0 120 68;" xml:space="preserve">
<style type="text/css">
	.st0{fill:#FFFFFF;}
</style>
<path class="st0" d="M93.5,67.4c-1.6,0-3-0.4-4.1-1.1c-0.4-0.2-0.7-0.6-1.1-1.1c-0.4,0.6-0.8,1.1-1.2,1.5c-0.2,0.2-0.5,0.2-0.8,0.2
	c-0.2,0-0.4,0-0.5,0c0,0-0.7-0.1-0.8-0.5c0-0.1,0-0.2,0.1-0.4c1.1-1.1,2.1-2.4,2.5-4l0.1-0.4c0-0.1,0.1-0.4,0.2-0.4
	c0.1-0.1,0.5-0.2,0.7-0.2c0.4,0,1,0.1,1.2,0.4c0.1,0.1,0.1,0.2,0.1,0.4l0.1,0.1c0.1,0.1,0.2,0.2,0.4,0.4c0.1,0.1,0.2,0.2,0.4,0.4
	l0.1,0.1l0.1,0.1c0.1,0.1,0.2,0.1,0.4,0.2v0.2l0.1-0.2l0.4,0.1H92c0.1,0,0.2,0.1,0.4,0.1c0,0,0.6,0.1,0.7,0.5c0,0.1,0,0.2-0.1,0.4
	c-0.1,0.1-0.4,0.2-0.6,0.2h-0.1c-0.2,0-0.5,0-0.6-0.1c-0.7-0.1-1.5-0.5-2.1-0.8c0.2,1.1,1.2,2.1,2.3,2.3c0.4,0.1,0.7,0.1,1.2,0.1
	c0.6,0,1.2-0.1,1.7-0.2c1.1-0.2,2.2-0.5,3.3-1c1.8-0.7,7.7-3.6,7.1-8.4c-0.2-1.6-1.3-3-3-3.9c-1.6-0.7-3.3-0.8-4.5-0.8
	c-0.5,0-1,0-1.5,0c-3.4,0.1-6.8,1.1-10,1.9c-1.1,0.2-2.2,0.6-3.3,0.8c-4,1-7,1.5-10,1.5c-1.3,0-2.5-0.1-3.7-0.2c0,0-0.6-0.1-0.8-0.5
	c-0.1-0.1,0-0.2,0-0.4c0.1-0.2,0.4-0.4,0.8-0.4c0.2,0,0.4,0,0.6,0c1,0.1,1.9,0.2,3,0.2c4.1,0,8.1-1.1,12.1-2.2l1.1-0.4
	c3.4-0.8,7.3-1.8,11-1.8c1.3,0,2.5,0.1,3.6,0.4c1.7,0.4,4,1.1,5.6,3c1.3,1.7,1.5,3.9,0.6,5.9c-0.7,1.7-2.2,3.2-4.6,4.6
	c-1.9,1.2-4.1,2.1-6.4,2.5C95.2,67.3,94.3,67.4,93.5,67.4z M22.6,63.3c-0.5,0-1-0.1-1.3-0.4c-0.7-0.5-1.2-1.3-1.2-2.3
	c0-0.8,0.2-1.7,0.5-2.2c0.6-1.6,1.7-3,3-4.5c0.2-0.2,0.5-0.5,0.7-0.7c-0.2,0-0.5,0-0.8,0c-0.8,0-1.6-0.1-2.3-0.4
	c-1.9-0.5-3.8-1.7-5-3.4c-0.2-0.4-0.6-0.8-0.6-1.5c0-0.7,0.4-1.6,1.2-1.8c0.1,0,0.1,0,0.2,0v-0.1c0.2-0.7,0.8-1.3,1.7-1.5
	c0.2,0,0.4,0,0.6,0c0.5,0,0.8,0.1,1.2,0.2c2.5,0.6,7.3,2.8,7.1,6.3c0,0,0,0,0.1,0c1,0,2.7,0.4,4.8,1c4.8,1.3,12.9,3.4,24.3,3.4
	c1.6,0,3.3,0,5-0.1c0.6,0,0.8,0.4,0.8,0.7c0,0.5-0.2,0.8-1,0.8c-1.1,0-2.1,0-3,0l0,0c-12.7,0-18.4-1.5-26.3-3.4
	c-1.2-0.2-2.4-0.6-3.8-1c0.1,0.1,0.1,0.2,0.2,0.5c0,0.1,0.1,0.2,0.1,0.4c0.2,0.8,0,1.8-0.1,2.5c-0.5,1.8-1.3,3.5-2.5,5
	c-0.8,1-1.6,1.7-2.4,2.1C23.4,63.3,23,63.3,22.6,63.3z M26.7,53.1c-0.4,0.5-0.8,0.8-1.3,1.2c-0.4,0.2-0.6,0.5-0.8,0.7
	c-1.2,1.3-2.2,2.7-2.7,4.1c-0.2,0.5-0.4,1-0.4,1.6c0,0.1,0,0.2,0,0.2c0.1,0.4,0.2,0.6,0.5,0.7c0.1,0.1,0.2,0.1,0.5,0.1
	c0.2,0,0.5,0,0.7-0.1c0.6-0.2,1.2-0.7,1.8-1.6c1-1.3,1.8-2.8,2.2-4.4c0.1-0.6,0.2-1.3,0.1-1.9C27.2,53.4,27.1,53.1,26.7,53.1z
	 M17,47.9L17,47.9c0,0.4,0.1,0.6,0.2,0.7c1,1.3,2.5,2.4,4.1,2.8c0.6,0.1,1.3,0.2,1.9,0.2c0.5,0,1.1,0,1.6-0.1c0.2,0,0.5-0.1,0.8-0.1
	c-0.4-0.4-0.7-0.6-1.1-1c-0.6-0.5-1.2-1-1.9-1.3s-1.6-0.6-2.4-0.8c-0.7-0.2-1.6-0.5-2.3-0.8c0,0.1-0.1,0.1-0.2,0.2
	C17.6,47.9,17.3,47.9,17,47.9L17,47.9z M18.4,46.7c0.7,0.4,1.5,0.6,2.2,0.7c0.8,0.2,1.7,0.5,2.5,1c0.7,0.4,1.5,1,2.1,1.5
	c0.2,0.2,0.5,0.4,0.7,0.6c-0.5-2.1-3.8-3.5-5.9-4.1c-0.2-0.1-0.6-0.1-0.8-0.1c-0.1,0-0.1,0-0.2,0c-0.2,0-0.5,0.2-0.5,0.4
	C18.5,46.6,18.4,46.7,18.4,46.7z M64.5,60c-0.1,0-0.1,0-0.2-0.1h-0.1L64,59.8c-0.2-0.1-0.2-0.5-0.2-1.2c0-1,0.2-2.2,0.5-3.5
	c0.2-1.3,0.6-2.8,1-4.2s0.8-2.9,1.2-4.2c0.5-1.3,0.8-2.5,1.1-3.4c0.2-0.6,0.5-1.2,0.6-1.7c0.2-0.6,0.2-0.8,0.2-0.8
	c0-0.1,0-0.4,0.1-0.6c0.1-0.2,0.2-0.5,0.5-1c0-0.1,0.1-0.2,0.5-1c0.2-0.5,0.5-1.1,0.7-1.7c0-0.1,0.1-0.2,0.1-0.2
	c-0.2,0.4-0.6,0.6-1,1c-1,1.1-1.9,2.1-3,3.2c-0.5,0.5-1.1,1.1-1.8,1.7c-0.7,0.6-1.3,1.2-2.2,1.7c-0.7,0.5-1.6,1-2.4,1.3
	c-0.8,0.4-1.7,0.6-2.5,0.6c-0.5,0-1-0.1-1.5-0.2c-0.7-0.5-1.2-1-1.5-1.6s-0.2-1.2-0.2-1.9c0-0.5,0-0.8,0-1.2s0.1-0.8,0.2-1.3
	c0.1-0.5,0.2-1,0.5-1.7c0.2-0.6,0.5-1.3,0.7-2.3c0.2-0.7,0.5-1.3,0.6-1.8c0.1-0.5,0.2-0.8,0.4-1v-0.1v-0.1c-0.2,0.1-0.7,0.5-1.8,1.6
	c-1.2,1.1-2.5,2.5-4.1,4.4c-1.1,1.2-1.9,2.1-2.4,2.5c-0.5,0.5-1,0.7-1.5,0.7l0,0c-1,0-1.6-0.4-1.8-1.1c-0.2-0.6-0.4-1.3-0.4-2.1
	c0-0.5,0-1,0-1.6c0-0.5,0.1-1.1,0.4-1.7c0.1-0.6,0.4-1.3,0.6-2.2c0.2-0.8,0.6-1.8,1.1-3c1.1-3.3,1.5-4.5,1.5-4.9H48
	c-0.2,0.1-0.7,0.6-1.5,1.2c-0.7,0.7-1.3,1.3-1.9,2.1c-0.6,0.7-1.1,1.5-1.7,2.1c-0.5,0.7-1,1.5-1.5,2.2c-0.5,0.8-1,1.7-1.6,2.7
	c-0.6,1-1.2,2.2-1.9,3.5c-0.1,0.2-0.2,0.6-0.6,1.1c-0.2,0.5-0.6,1.1-1,1.6c-0.4,0.5-0.7,1.1-1.1,1.5c-0.5,0.5-0.8,0.7-1.2,0.7
	c-0.6,0-1-0.4-1.2-1c-0.1-0.5-0.2-1-0.2-1.3c-0.1-1.5,0-2.9,0.4-4.2c0.4-1.2,0.8-2.7,1.7-4.4c-1.5,0.7-3,1.2-4.5,1.7
	c-1.8,0.5-3.6,0.7-5.4,0.7h-0.7l-0.4,0.5c-0.4,0.5-0.8,1-1.5,1.5c-0.6,0.5-1.1,0.8-1.6,1c-0.1,0-0.4,0.1-0.4,0.1c-0.1,0-0.2,0-0.4,0
	c-0.4,0-0.6-0.1-0.8-0.2c-0.6-0.4-1-0.7-1.1-1.3c-0.1-0.5-0.1-1-0.1-1.6c0-0.5,0-0.8,0-1.1c0-0.2,0.1-0.5,0.2-0.8l0.2-0.7l-0.1-0.1
	l0,0c-0.6,0.4-1,0.6-1.3,0.7c-0.2,0-0.4,0.1-0.5,0.2c-0.1,0.2-0.4,0.7-0.8,1.7c-0.5,0.8-1.1,1.9-1.9,3.3c-0.8,1.3-1.8,2.7-2.9,4
	s-2.2,2.4-3.4,3.4s-2.4,1.5-3.5,1.5c-0.2,0-0.5,0-0.6,0c-1.3-0.2-2.3-1-2.8-2.4C0,43.2-0.1,41.2,0.1,39c0.2-1.7,0.6-3.6,1.3-5.7
	C2,31.3,2.9,29.1,4,26.9l0.6-1.3l-0.2-0.7c-0.6-1.5-0.8-3-0.8-4.6s0.2-3,0.6-4.5c0.5-1.5,1.1-2.7,2.1-3.9c0.5-0.4,1.6-1.2,2.8-1.8
	c0.5-0.4,1-0.5,1.3-0.6c0.4-0.1,0.8-0.1,1.3-0.2l0,0c2.1,0,3.8,0.6,5,1.8s2.2,2.8,2.7,4.7c0.5,2.1,0.6,4.4,0.2,7
	c-0.2,2.7-1,5.3-2.1,8.1l-0.4,1c0.1-0.1,0.2-0.2,0.5-0.4v-0.1c0-0.5,0.1-1,0.2-1.3c0.4-0.7,1-1.3,1.8-1.8s1.7-0.7,2.5-0.7
	c0.7,0,1.3,0.2,1.9,0.6c1.5,1.3,1.6,3.4,0.4,6.2c0,0,0,0,0.1,0c0.6,0,1.2,0,1.8,0c0.6,0,1.2-0.1,1.8-0.1c1.1-0.2,2.3-0.5,3.5-1
	c1.2-0.4,2.4-1,3.6-1.6l0.1-0.1c0.4-0.6,0.6-1,0.8-1.3c0.4-0.5,0.7-0.7,1.1-0.7c0.5,0,0.7,0.2,0.8,0.4c0.1,0.2,0.2,0.6,0,1.1
	c-0.1,0.5-0.5,1.2-1,2.3c-0.7,1.6-1.2,2.8-1.6,3.9c-0.4,1.1-0.6,2.2-0.8,3.2c-0.1,0.5-0.1,1-0.2,1.3c0,0.1,0,0.1,0,0.2
	c0.1-0.1,0.2-0.2,0.4-0.4c0.4-0.4,0.7-0.7,0.8-1.1c0.1-0.1,0.4-0.5,0.7-1.1s0.7-1.3,1.1-2.1c0.7-1.3,1.5-2.5,2.1-3.5
	c0.6-1.1,1.3-2.1,1.9-2.9c0.6-1,1.3-1.8,1.9-2.5c0.6-0.8,1.3-1.6,2.1-2.4s1.2-1.3,1.7-1.6c0.5-0.4,0.8-0.5,1.1-0.5
	c0.5,0,1,0.2,1.2,0.5c0.2,0.4,0.2,0.8,0.2,1.7c0,0.6-0.1,1.5-0.2,2.3c-0.2,0.8-0.5,2.1-1.1,3.6c-0.7,2.2-1.2,3.9-1.6,5
	c-0.2,1.1-0.4,1.8-0.4,2.4s0.1,0.7,0.1,0.7s0.4-0.1,1.1-0.7c0.6-0.5,1.7-1.5,3.1-3c1.1-1.1,1.9-1.9,2.7-2.7c0.7-0.7,1.3-1.2,1.7-1.6
	c0.5-0.4,0.7-0.6,1.1-0.7c0.2-0.1,0.5-0.2,0.7-0.2c0.6,0,1.3,0.4,1.3,1.9c0,0.5-0.1,1.1-0.2,1.8c-0.1,0.7-0.5,1.7-0.8,3
	c-0.4,1.3-0.7,2.4-0.8,3.2c-0.1,0.7-0.2,1.3-0.2,1.8c0,0.5,0,0.6,0,0.7c0,0,0,0.1,0.2,0.2c0.2,0.2,0.6,0.4,1,0.4
	c0.7,0,1.5-0.2,2.3-0.6s1.8-1,2.9-1.8c1.1-0.8,2.2-1.8,3.1-2.8c1.1-1,2.1-2.1,3-3.2c1-1.1,1.7-1.9,2.3-2.7c0.2-0.2,0.4-0.5,0.5-0.6
	l0.2-0.6c0.4-0.7,0.7-1.5,1-1.9c0.4-0.6,0.5-1,0.7-1.2c0.5-0.5,0.8-0.7,1.1-0.7c0.1,0,0.2,0,0.4,0.1c0.1,0.1,0.2,0.2,0.2,0.5
	c0,0.1,0,0.4-0.1,0.8c-0.1,0.4-0.4,1-0.7,1.7c-0.4,0.7-0.7,1.8-1.2,3.2c-0.5,1-0.7,1.8-1,2.4c0.1-0.1,0.1-0.2,0.2-0.4
	c0.4-0.5,0.8-1.1,1.6-1.8c0.7-0.7,1.3-1.5,2.2-2.2c0.7-0.7,1.6-1.3,2.4-1.8s1.6-0.7,2.4-0.7c0.7,0,1.3,0.4,1.7,1.1
	c0.2,0.2,0.2,0.7,0.2,1.3c0,0.5-0.2,1-0.5,1.5c-0.2,0.5-0.6,1.1-1,1.7s-0.8,1.1-1.5,1.7c-0.5,0.5-1.1,1.1-1.7,1.6l-0.2,0.1h0.4
	c1.7,0,3.5-0.2,5.2-0.6s3.3-1.1,4.8-1.9c0.5-0.2,1-0.6,1.6-1.1c0.6-0.5,1.1-0.8,1.7-1.3c0.5-0.5,1-0.8,1.5-1.3
	c0.4-0.4,0.7-0.7,1-1.1c0.2-0.7,0.5-1.6,0.7-2.4c0.8-2.5,1.8-5.1,2.9-7.6c1.1-2.5,2.4-5,3.9-7.2c1.5-2.2,3-4,4.8-5.2
	c1.7-1.3,3.4-2.1,4.8-2.1c0.8,0,2.1,0.4,2.3,2.2c0.1,0.8,0,1.8-0.2,2.8c-0.2,1.1-0.6,2.2-1.1,3.4s-1.2,2.5-1.9,3.8
	c-0.7,1.3-1.7,2.5-2.7,3.9c-3.1,3.8-6.8,7-10.9,9.6l-1,0.5l0,1l-0.7,2.5c-0.2,0.8-0.4,1.6-0.6,2.2c-0.1,0.2-0.1,0.5-0.1,0.7
	c0.4-0.5,0.7-1,1.2-1.6c0.7-1,1.6-1.8,2.4-2.5c0.8-0.8,1.8-1.6,2.7-2.1c1-0.6,1.9-0.8,2.9-0.8c1,0,2.1,0.5,2.1,2.8
	c0,0.6-0.1,1.2-0.2,1.8s-0.5,1.7-0.8,3c-0.4,1.2-0.6,2.2-0.7,2.7c-0.1,0.5-0.1,1,0,1.2c0.1,0.2,0.1,0.2,0.1,0.2l0,0c0,0,0.1,0,0.2,0
	h0.4c0.6-0.1,1.6-0.5,3-1.3c1.5-0.8,2.8-1.8,4.4-2.9c0.7-0.6,1.7-1.5,2.8-2.5c1.1-1.1,2.1-2.1,2.9-3c0.5-0.6,0.8-1,1.1-1.1
	c0.2-0.2,0.4-0.4,0.6-0.4l0,0h0.1l0,0c0.1,0,0.2,0,0.4,0.1l0.1,0.1v0.1c0,0.1,0,0.1-0.2,0.6c-0.1,0.2-0.4,0.6-0.7,1
	c-0.2,0.4-0.6,0.7-1,1.2c-0.4,0.5-0.7,0.8-1.1,1.3c-0.5,0.6-1.3,1.5-2.3,2.4c-1,1-2.2,1.9-3.4,2.9c-1.2,1-2.4,1.7-3.6,2.4
	c-1.2,0.7-2.3,1-3.3,1c-0.5,0-0.8-0.1-1.2-0.2c-0.7-0.4-1.1-1-1.3-2.1c-0.1-0.6-0.1-1.5,0.1-2.3c0.2-0.8,0.6-1.9,1.1-3.4
	c0.4-1,0.6-1.8,0.8-2.2c0.1-0.4,0.2-0.8,0.2-1.1c0-0.7-0.4-0.7-0.6-0.7c-0.5,0-1.1,0.2-1.7,0.6c-0.7,0.4-1.3,0.8-1.9,1.5
	c-0.6,0.6-1.2,1.1-1.8,1.7c-0.6,0.6-1,1.1-1.3,1.5c-0.4,0.4-0.6,0.8-1,1.3c-0.4,0.5-0.6,1-1,1.5c-0.2,0.5-0.5,0.8-0.7,1.2
	c-0.2,0.5-0.2,0.6-0.2,0.6c0,0.4-0.2,0.5-0.5,0.5c-0.1,0-0.4-0.1-0.5-0.1c-0.1-0.1-0.2-0.5-0.2-1.1c0-0.5,0-1.1,0.1-1.9
	c0.1-0.7,0.2-1.6,0.4-2.5s0.4-1.8,0.6-2.7c0.1-0.7,0.4-1.3,0.5-2.1c-2.1,2.1-4.4,3.5-6.5,4.6c-2.4,1.1-5.1,1.6-8.1,1.6H77l-0.6,0.4
	c-0.7,0.5-1.7,0.8-2.5,1.2c-1,0.4-1.7,0.6-2.3,0.6c-0.4,0-0.5,0.1-0.5,0.1s-0.1,0-0.1,0.2c-0.4,1.2-1,3-1.8,5.5
	c-0.8,2.4-1.8,6.1-3.1,10.6C64.9,59.8,64.7,60,64.5,60z M5.8,29.1c-1.2,2.9-2.2,5.3-2.9,7.4c-0.6,2.1-1.1,3.8-1.2,5.3
	c-0.2,2.4,0.1,3.9,1.3,4.4c0.1,0,0.4,0.1,0.6,0.1c0.6,0,1.2-0.1,1.7-0.4c0.5-0.2,1.1-0.7,1.8-1.2c0.6-0.6,1.3-1.2,2.1-2.1
	c0.7-0.7,1.3-1.6,2.1-2.5c0.7-0.8,1.3-1.8,1.8-2.7c0.6-1,1-1.7,1.3-2.4c0.2-0.5,0.4-0.7,0.4-0.8c-1.5,0-2.9-0.4-4.4-1.2
	c-1.5-1-2.7-1.9-3.8-3.2L5.8,29.1L5.8,29.1z M72.9,39.5c-0.6,0-0.8,0.1-1,0.1s-0.2,0.1-0.4,0.4h0.1c0.5-0.1,1.1-0.4,1.7-0.5l0,0
	L72.9,39.5z M73.5,37.9c0.5,0,1,0,1.3,0s0.7,0.1,1,0.1c0,0,0.1-0.1,0.4-0.2s0.6-0.4,0.8-0.6c1-0.6,1.9-1.5,2.9-2.5
	c0.8-1,1.5-1.8,1.7-2.5c0.2-0.8,0.2-1.1,0.1-1.3c-0.1-0.1-0.2-0.2-0.6-0.2H81c-0.6,0.1-1.3,0.4-2.1,1c-0.8,0.5-1.6,1.2-2.3,1.9
	c-0.7,0.7-1.5,1.5-2.2,2.3c-0.6,0.7-1.2,1.5-1.6,2.1h0.6V37.9z M20.1,34.5c-0.1,0.2-0.1,0.5-0.2,0.8s-0.1,0.7-0.1,1
	c0,0.7,0.2,0.7,0.4,0.7c0.2,0,0.5-0.1,0.6-0.2c0.4-0.2,0.7-0.4,1.1-0.7c0.4-0.2,0.6-0.5,0.7-0.7v-0.1L22,35.1
	c-0.2-0.1-0.6-0.1-0.8-0.2c-0.4-0.1-0.5-0.2-0.7-0.2C20.3,34.5,20.2,34.5,20.1,34.5z M20.4,33.3c0,0,0.1,0.1,0.2,0.1
	c0.4,0.1,0.6,0.2,1.1,0.4c0.4,0.1,0.7,0.2,1.1,0.4c0.4,0.1,0.5,0.1,0.5,0.1s0.1-0.2,0.2-0.5c0.4-1,0.6-1.9,0.6-2.7
	c0-0.5,0-0.7,0-0.7c0-0.1-0.1-0.4-0.2-0.6c-0.4-0.6-0.8-1-1.5-1h-0.4c-0.5,0-1,0.1-1.3,0.2c-0.4,0.1-0.7,0.4-1,0.6
	c0.1,0.1,0.2,0.2,0.2,0.4c0,0,0,0,0,0.1c0.4-0.2,0.6-0.4,1-0.4c0.1,0,0.2,0,0.4,0.1c0.2,0.1,0.4,0.4,0.2,0.6c0,0.2-0.2,0.6-0.5,1.1
	c-0.2,0.4-0.5,0.8-0.7,1.2C20.5,33,20.5,33.2,20.4,33.3z M6.8,27.6C6.9,27.7,7,28,7.1,28.2c0.2,0.2,0.4,0.5,0.7,0.7
	c0.2,0.2,0.5,0.5,0.7,0.8c0.2,0.2,0.5,0.5,0.7,0.6c0.7,0.5,1.6,1,2.5,1.5c1,0.5,1.9,0.7,2.8,0.7h0.8l0.4-0.8
	c0.6-1.5,1.1-2.9,1.5-4.2c0.4-1.5,0.7-2.9,1-4.2c0.1-0.4,0.1-0.8,0.1-1.5c0-0.6,0-1.1,0-1.7s0-1.1,0-1.6s-0.1-1-0.1-1.3
	c-0.1-0.7-0.4-1.6-0.7-2.3c-0.4-0.7-0.7-1.5-1.2-2.1c-0.5-0.6-1.1-1.1-1.7-1.6c-0.6-0.4-1.3-0.6-2.2-0.6c-1,0-1.8,0.1-2.4,0.5
	c-0.7,0.2-1.5,0.7-2.2,1.5c-1.3,1.3-2.3,3-2.9,5s-0.6,4-0.1,5.9c0.1,0.6,0.2,1,0.2,1.2c0.1-0.1,0.2-0.5,0.5-1
	c0.7-1.2,1.3-2.4,2.1-3.5c0.7-1.1,1.5-2.1,2.2-2.9c0.7-0.8,1.3-1.6,1.9-2.1c0.6-0.5,1.1-0.8,1.5-0.8c0.7,0,0.8,0.4,0.8,0.6
	c0,0.4-0.1,0.7-0.5,1.2c-1,1.1-2.1,2.5-3.3,4.4c-1.1,1.7-2.2,3.5-3,5.2l-0.7,1.6L6.8,27.6z M111.8,7.7c-0.7,0-1.5,0.2-2.2,0.8
	c-0.8,0.5-1.6,1.2-2.3,1.9c-0.7,0.7-1.5,1.6-2.1,2.4c-0.6,0.8-1.1,1.6-1.3,2.1c-0.2,0.5-0.6,1-1,1.8c-0.4,0.7-0.8,1.6-1.2,2.4
	s-0.8,1.7-1.2,2.4c-0.4,0.7-0.6,1.5-0.8,1.9l-1.2,3c-0.4,1.1-0.8,2.3-1.2,3.4l-0.4,1.1l0.5-0.4c0.2-0.2,0.6-0.4,0.8-0.6
	c1.8-1.3,3.6-2.8,5.3-4.5c1.7-1.7,3.3-3.4,4.5-5.1c0.8-1.2,1.7-2.4,2.3-3.6c0.7-1.2,1.2-2.4,1.6-3.6c0.4-1.1,0.6-2.2,0.7-3
	c0.1-0.8,0-1.6-0.2-2.1C112.4,7.9,112.1,7.7,111.8,7.7z M20.1,13.5c-0.1,0-0.4,0-0.5,0S19,13.4,18.8,13c0-0.1,0-0.2,0.1-0.4
	c2.4-2.5,3.6-6.3,3-9.8c-0.6,0.8-1.2,1.6-1.8,2.3c-0.6,0.7-1.2,1.3-1.8,1.9c-0.7,0.6-1.3,1.2-2.3,1.2c-0.7,0-1.1-0.1-1.2-0.5
	c0-0.1,0-0.2,0-0.4c0.2-0.2,0.7-0.2,0.8-0.2l0,0c0.2,0,0.5-0.4,0.7-0.5c0.1-0.1,0.1-0.1,0.2-0.1c0.1-0.4,0.5-0.6,0.7-0.8
	c0.5-0.5,1-1.1,1.5-1.7c1-1.2,1.8-2.4,2.5-3.8c0.2-0.4,0.6-0.4,0.8-0.4c0.4,0,1,0.1,1.1,0.5c1.7,4.4,0.6,9.6-2.5,12.9
	C20.5,13.4,20.3,13.5,20.1,13.5z M6.1,10.9c-0.4,0-0.8,0-1.1-0.4C2,7.1,0.5,4.1,0.5,0.9V0.8V0.5c0.1-0.1,0.2-0.1,0.5-0.1
	c0.4,0,1.2,0.1,1.3,0.6c0.4,1.2,1.2,2.1,1.8,2.8C4.5,4.2,4.9,4.7,5.3,5C5.7,5.4,6,5.8,6.5,5.8c0,0,1,0.1,1.1,0.6
	c0,0.1,0,0.2-0.1,0.4c-0.1,0-0.2,0.1-0.6,0.1H6.8C5.3,6.7,4.3,6,3.2,4.9C4,6.6,5.1,8.3,6.8,10.1c0.1,0.2,0.1,0.4,0.1,0.5
	C6.8,10.9,6.4,10.9,6.1,10.9L6.1,10.9z"/>
</svg>
