<svg xmlns="http://www.w3.org/2000/svg" viewBox="0 0 500 500">
<style type="text/css">
	.st0 {
		fill: #DD5737;
	}
	@media (prefers-color-scheme: dark) {
		.st0 {
			fill: #FFFFFF;
		}
	}
</style>
<path class="st0" d="M288.4,435.1c15.1-32.2,28.4-74.7,11.3-100.7c7.2-3,14.6-5.9,22-8.6c-0.7,2.6-1.3,5.3-1.8,8.3
	c-3,18-0.7,36,1.2,47.9c4.7,28.6,15.3,46.6,32.4,55c6.5,3.2,13.2,4.1,19,2.7c3-0.7,5.9-2,8.4-4c4.1-3.2,6.3-7.3,7.9-10.9
	c11-24.5,12.6-54,4.2-80.9c-2.1-6.6-7.7-22.6-16.9-34.5c28.3-6.4,57.1-8.8,84.9-4.1c6.3,5.9,10.3,14.4,17.7,18.2
	c5.4,2.8,9.5,2.2,13.7-0.7c6.6-4.4,2.2-17.4-3.1-21.6c-0.1,0,0-0.3,0-0.3c-8.2-8.7-17.1-17.1-26.8-25.1
	c-22.8-18.9-47.8-35-73.1-49.9c9.2-5.7,17.8-18.2,27.5-35.4c9.7-17,16-34.8,22.3-53.2c2.6-7.6,8.6-25.5-2-38.9
	c-3.3-4.2-7.8-7-12.6-7.9c-9-1.7-17.3,2.7-24.7,13l0,0c-13.3,18.5-31.7,47-38.4,79.6l-0.5,2.3c-1.3,6.1-3.2,14.7-2.6,22.8
	c-3.3-1.9-6.7-3.7-10-5.6c-11.3-6.3-22.6-12.7-33.9-19.2c4.7-3.8,8-9.2,10.8-13.9c6-10,9.3-21.9,9.7-34.4c0.6-17.5-4.4-36.2-15-57.1
	c-13-25.5-31.4-48.8-53.2-67.3C253.4-0.8,239-2.9,229.1,5.4c-4.9,4.1-7,9.4-8.4,14.1c-9,29.8-4.6,64,12.3,96.3
	c3,5.6,7.8,14.3,13.9,23.8c-33.1-18.6-68.2-33.6-104.6-44.4c-18.5-5.5-40.4-10.8-62.6-8.4c-25.5,2.7-46.9,15.9-57.5,35
	c-13.9,25-8.2,59.2,13.9,83c16.4,17.7,40.1,29.7,72.5,36.7c37.2,8.1,76.6,8.4,113.9,0.9c2.1-0.4,4.2-0.9,6.3-1.4
	c22.2-5.2,39.8-13.1,53.5-24.2c5.6-4.5,11.7-10.1,15.3-16.7c13.1,7.6,26.3,15.1,39.5,22.4c31.4,17.5,63.6,35.5,92.7,56.9
	c-52.9,0.2-105.8,19.2-152.5,39.1c-29.2-6-68.6,23.7-87.4,37.9l-1.6,1.2l0,0c-19.6,14.8-32.4,29.2-40.1,45.3
	c-10.5,21.8-10.7,46.9-0.4,65.6c14.9,27.2,47.3,35.9,73.5,29.8c2.9-0.7,5.7-1.5,8.4-2.6C260.1,484.5,278.4,456.5,288.4,435.1z
	 M267.9,199c-12.1,9.7-28.7,16.6-49.9,20.9c-34.2,6.9-70.3,6.7-104.4-0.8c-27.7-6-47.4-15.8-60.5-29.9c-13-14.1-20.9-37.9-10.7-56.2
	c0-0.1,0.1-0.1,0.2-0.2c0.7,12,7.6,24.4,19.6,34.9c29.6,26.1,70.6,31.1,113.7,34.2c27.2,2,59.8,4.4,90.4-2.7
	c0.7-0.2,1.4-0.4,2.1-0.6C268.1,198.9,268,198.9,267.9,199z M176.1,196.3c-42-3.1-82-7.9-110.3-32.8c-5.3-4.6-16.6-16.1-17.6-30.4
	c14.1,10,33.7,15.8,39.9,17.4c62,16.6,128.7,31.3,185.1,40.9C241.1,201.2,205.4,198.5,176.1,196.3z M89.6,145
	c-13.4-3.6-31.2-10.5-41.7-19.4c6.5-6.8,15.9-11.9,26.6-14.4c2.5-0.6,5.1-1,7.7-1.3c18-2,36.4,2.5,53.5,7.5
	c44,13.1,85.9,32.3,124.5,57.2c4.1,2.6,12.5,8,16,11.6C219.6,176.5,152.2,161.7,89.6,145z M305.5,157.7c-1.8,3.1-3.2,5.3-4.2,6.6
	c-0.6-0.3-1.3-0.7-2.3-1.3c-20.8-12.7-40.1-47.5-45.6-57.9c-13.9-26.6-17.8-55.4-10.6-79c0.5-1.6,0.8-2.4,0.8-2.7
	c1.3,0.2,4.5,1.5,8.3,4.8c19.5,16.6,35.9,37.4,47.6,60.2c8.9,17.3,13,32.3,12.5,45.9C311.7,142.8,309.4,151.1,305.5,157.7z
	 M383.6,190.4l0.6-2.6c5.8-28.4,22.5-54,34.6-70.9c0.5-0.7,1-1.4,1.4-1.8c0.8,4.5-1.7,12.1-2.7,14.8c-5.9,17.2-11.8,33.9-21.1,50.2
	c-7.4,13-12.2,19.6-14.9,22.9C381.7,200,382.4,195.7,383.6,190.4z M342.7,337.8c1.1-6.7,2.9-11.8,5.5-15.4c2.5-3.5,4.1-4.2,4-4.2
	c3.8,0.8,12.9,13.8,18.8,32.6c6.7,21.6,5.6,45.1-3.2,64.6c-0.5,1.1-0.8,1.7-0.8,1.9c-0.7,0-1.8-0.3-3.3-1
	c-9.9-4.9-16.4-17.3-19.8-38C341.2,361.6,340.8,349.2,342.7,337.8z M168.1,457.7c-6.7-12.3-6.4-29.3,0.9-44.5
	c6.1-12.7,16.7-24.4,33.3-36.9l1.6-1.2c28.3-21.4,46.4-30.5,57.9-33.2c8.8-2,13.7-0.4,16.5,2.6c0.2,0.2,0.3,0.6,0.6,0.8
	c1.3,12.2-1.4,23.6-4.3,31.8c-5.1,14.2-13.8,27.3-21.6,38.1c-10.6,14.7-23.7,31.2-40.9,41.8c-11.5,7.1-24,10.6-35.7,10.6
	C173.3,464.8,170.3,461.6,168.1,457.7z M221.7,474.4c-11.3,4.3-25.6,4-37.3-1.7c2.5-0.3,5-0.6,7.5-1.2c7.9-1.8,15.8-5.1,23.3-9.7
	c18.1-11.1,31.6-28.1,42.6-43.3c8-11.2,17-24.7,22.3-39.6c1.8-5,3.5-11.2,4.4-18c1.2,15.4-4.4,37.8-16.9,64.3
	C259.4,442.9,244.7,465.7,221.7,474.4z M288.4,435.1c15.1-32.2,28.4-74.7,11.3-100.7c7.2-3,14.6-5.9,22-8.6
	c-0.7,2.6-1.3,5.3-1.8,8.3c-3,18-0.7,36,1.2,47.9c4.7,28.6,15.3,46.6,32.4,55c6.5,3.2,13.2,4.1,19,2.7c3-0.7,5.9-2,8.4-4
	c4.1-3.2,6.3-7.3,7.9-10.9c11-24.5,12.6-54,4.2-80.9c-2.1-6.6-7.7-22.6-16.9-34.5c28.3-6.4,57.1-8.8,84.9-4.1
	c6.3,5.9,10.3,14.4,17.7,18.2c5.4,2.8,9.5,2.2,13.7-0.7c6.6-4.4,2.2-17.4-3.1-21.6c-0.1,0,0-0.3,0-0.3c-8.2-8.7-17.1-17.1-26.8-25.1
	c-22.8-18.9-47.8-35-73.1-49.9c9.2-5.7,17.8-18.2,27.5-35.4c9.7-17,16-34.8,22.3-53.2c2.6-7.6,8.6-25.5-2-38.9
	c-3.3-4.2-7.8-7-12.6-7.9c-9-1.7-17.3,2.7-24.7,13l0,0c-13.3,18.5-31.7,47-38.4,79.6l-0.5,2.3c-1.3,6.1-3.2,14.7-2.6,22.8
	c-3.3-1.9-6.7-3.7-10-5.6c-11.3-6.3-22.6-12.7-33.9-19.2c4.7-3.8,8-9.2,10.8-13.9c6-10,9.3-21.9,9.7-34.4c0.6-17.5-4.4-36.2-15-57.1
	c-13-25.5-31.4-48.8-53.2-67.3C253.4-0.8,239-2.9,229.1,5.4c-4.9,4.1-7,9.4-8.4,14.1c-9,29.8-4.6,64,12.3,96.3
	c3,5.6,7.8,14.3,13.9,23.8c-33.1-18.6-68.2-33.6-104.6-44.4c-18.5-5.5-40.4-10.8-62.6-8.4c-25.5,2.7-46.9,15.9-57.5,35
	c-13.9,25-8.2,59.2,13.9,83c16.4,17.7,40.1,29.7,72.5,36.7c37.2,8.1,76.6,8.4,113.9,0.9c2.1-0.4,4.2-0.9,6.3-1.4
	c22.2-5.2,39.8-13.1,53.5-24.2c5.6-4.5,11.7-10.1,15.3-16.7c13.1,7.6,26.3,15.1,39.5,22.4c31.4,17.5,63.6,35.5,92.7,56.9
	c-52.9,0.2-105.8,19.2-152.5,39.1c-29.2-6-68.6,23.7-87.4,37.9l-1.6,1.2l0,0c-19.6,14.8-32.4,29.2-40.1,45.3
	c-10.5,21.8-10.7,46.9-0.4,65.6c14.9,27.2,47.3,35.9,73.5,29.8c2.9-0.7,5.7-1.5,8.4-2.6C260.1,484.5,278.4,456.5,288.4,435.1z
	 M267.9,199c-12.1,9.7-28.7,16.6-49.9,20.9c-34.2,6.9-70.3,6.7-104.4-0.8c-27.7-6-47.4-15.8-60.5-29.9c-13-14.1-20.9-37.9-10.7-56.2
	c0-0.1,0.1-0.1,0.2-0.2c0.7,12,7.6,24.4,19.6,34.9c29.6,26.1,70.6,31.1,113.7,34.2c27.2,2,59.8,4.4,90.4-2.7
	c0.7-0.2,1.4-0.4,2.1-0.6C268.1,198.9,268,198.9,267.9,199z M176.1,196.3c-42-3.1-82-7.9-110.3-32.8c-5.3-4.6-16.6-16.1-17.6-30.4
	c14.1,10,33.7,15.8,39.9,17.4c62,16.6,128.7,31.3,185.1,40.9C241.1,201.2,205.4,198.5,176.1,196.3z M89.6,145
	c-13.4-3.6-31.2-10.5-41.7-19.4c6.5-6.8,15.9-11.9,26.6-14.4c2.5-0.6,5.1-1,7.7-1.3c18-2,36.4,2.5,53.5,7.5
	c44,13.1,85.9,32.3,124.5,57.2c4.1,2.6,12.5,8,16,11.6C219.6,176.5,152.2,161.7,89.6,145z M305.5,157.7c-1.8,3.1-3.2,5.3-4.2,6.6
	c-0.6-0.3-1.3-0.7-2.3-1.3c-20.8-12.7-40.1-47.5-45.6-57.9c-13.9-26.6-17.8-55.4-10.6-79c0.5-1.6,0.8-2.4,0.8-2.7
	c1.3,0.2,4.5,1.5,8.3,4.8c19.5,16.6,35.9,37.4,47.6,60.2c8.9,17.3,13,32.3,12.5,45.9C311.7,142.8,309.4,151.1,305.5,157.7z
	 M383.6,190.4l0.6-2.6c5.8-28.4,22.5-54,34.6-70.9c0.5-0.7,1-1.4,1.4-1.8c0.8,4.5-1.7,12.1-2.7,14.8c-5.9,17.2-11.8,33.9-21.1,50.2
	c-7.4,13-12.2,19.6-14.9,22.9C381.7,200,382.4,195.7,383.6,190.4z M342.7,337.8c1.1-6.7,2.9-11.8,5.5-15.4c2.5-3.5,4.1-4.2,4-4.2
	c3.8,0.8,12.9,13.8,18.8,32.6c6.7,21.6,5.6,45.1-3.2,64.6c-0.5,1.1-0.8,1.7-0.8,1.9c-0.7,0-1.8-0.3-3.3-1
	c-9.9-4.9-16.4-17.3-19.8-38C341.2,361.6,340.8,349.2,342.7,337.8z M168.1,457.7c-6.7-12.3-6.4-29.3,0.9-44.5
	c6.1-12.7,16.7-24.4,33.3-36.9l1.6-1.2c28.3-21.4,46.4-30.5,57.9-33.2c8.8-2,13.7-0.4,16.5,2.6c0.2,0.2,0.3,0.6,0.6,0.8
	c1.3,12.2-1.4,23.6-4.3,31.8c-5.1,14.2-13.8,27.3-21.6,38.1c-10.6,14.7-23.7,31.2-40.9,41.8c-11.5,7.1-24,10.6-35.7,10.6
	C173.3,464.8,170.3,461.6,168.1,457.7z M221.7,474.4c-11.3,4.3-25.6,4-37.3-1.7c2.5-0.3,5-0.6,7.5-1.2c7.9-1.8,15.8-5.1,23.3-9.7
	c18.1-11.1,31.6-28.1,42.6-43.3c8-11.2,17-24.7,22.3-39.6c1.8-5,3.5-11.2,4.4-18c1.2,15.4-4.4,37.8-16.9,64.3
	C259.4,442.9,244.7,465.7,221.7,474.4z"/>
</svg>
